<svg width="326" height="38" viewBox="0 0 326 38" fill="none" xmlns="http://www.w3.org/2000/svg"><path d="M.4 13.9h7.04V6.66h2.88v7.24h7.04v2.88h-7.04v7.2H7.44v-7.2H.4V13.9Zm23 14.96L33.44 5.42l1.76-1.96-2.36.36h-11.4V.86h16.72v1.08L26.64 28.86H23.4Zm35 8.8a20.22 20.22 0 0 1-3.13-4.24 26.97 26.97 0 0 1-2.08-4.68 32.19 32.19 0 0 1-1.12-14.24 29.44 29.44 0 0 1 3.24-9.72 23.17 23.17 0 0 1 3.2-4.4l1.92 1.4a24.02 24.02 0 0 0-4.36 8.64 29.7 29.7 0 0 0-1.16 8.72c0 1.28.1 2.68.28 4.2.22 1.49.54 3 .96 4.52.46 1.49 1.03 2.96 1.72 4.4a19.86 19.86 0 0 0 2.56 3.92l-2.04 1.48Zm4.84-15.48c0-1.68.44-3.14 1.32-4.36a11.77 11.77 0 0 1 4.12-3.4c-.66-.4-1.29-.82-1.88-1.24a7.56 7.56 0 0 1-2.56-3.4c-.24-.7-.36-1.5-.36-2.4 0-1.04.18-1.99.52-2.84a6.48 6.48 0 0 1 4-3.64 9.5 9.5 0 0 1 3.24-.52c1.12 0 2.14.16 3.04.48.91.32 1.67.76 2.28 1.32a5.76 5.76 0 0 1 1.48 2c.35.77.52 1.62.52 2.56 0 1.52-.34 2.86-1.04 4.04a11.9 11.9 0 0 1-3.44 3.4c.7.4 1.35.84 1.96 1.32a8.5 8.5 0 0 1 1.64 1.6c.48.58.86 1.25 1.12 2a8.65 8.65 0 0 1-.16 5.64 6.91 6.91 0 0 1-4.28 4.04 10.5 10.5 0 0 1-3.56.56 9.57 9.57 0 0 1-3.4-.56 7.67 7.67 0 0 1-2.52-1.52 6.42 6.42 0 0 1-1.52-2.24 7.68 7.68 0 0 1-.52-2.84Zm13.24-.4c0-.8-.16-1.5-.48-2.08a5.81 5.81 0 0 0-1.28-1.64c-.5-.51-1.09-.96-1.76-1.36a38.4 38.4 0 0 0-2.08-1.16 9.26 9.26 0 0 0-3.48 3.04 6.11 6.11 0 0 0-1.04 3.2c0 .64.11 1.25.32 1.84.22.58.54 1.09.96 1.52a5 5 0 0 0 1.56 1.04c.64.24 1.38.36 2.2.36a5.15 5.15 0 0 0 3.52-1.16c.48-.4.86-.9 1.12-1.48.3-.62.44-1.32.44-2.12ZM67 7.3c0 .74.15 1.41.44 2 .3.56.68 1.06 1.16 1.52.51.45 1.08.88 1.72 1.28.64.37 1.31.73 2 1.08 1.2-.94 2.08-1.86 2.64-2.76.59-.91.88-1.91.88-3 0-1.36-.42-2.4-1.28-3.12a4.32 4.32 0 0 0-3-1.12 4.83 4.83 0 0 0-3.36 1.28A3.8 3.8 0 0 0 67 7.3Zm19.64 18.6h5.6V6.54l.4-2.36-1.6 1.88-4.4 3.16-1.52-2.04 8.8-6.8h1.44V25.9h5.48v2.96h-14.2V25.9Zm35.32-18.68c0 1.41-.27 2.86-.8 4.36a26.12 26.12 0 0 1-2.04 4.44 43.37 43.37 0 0 1-2.8 4.4 106.5 106.5 0 0 1-3.12 4.04l-1.96 1.72v.16l2.56-.44h8.72v2.96H106.6V27.7c.58-.62 1.3-1.38 2.12-2.28a64 64 0 0 0 5.2-6.52 38.6 38.6 0 0 0 2.36-3.8c.72-1.28 1.3-2.55 1.72-3.8.42-1.26.64-2.44.64-3.56 0-1.31-.38-2.39-1.12-3.24-.75-.88-1.88-1.32-3.4-1.32-1.02 0-2 .21-2.96.64-.96.4-1.79.86-2.48 1.4l-1.32-2.28c.93-.8 2.04-1.43 3.32-1.88 1.28-.46 2.65-.68 4.12-.68 1.14 0 2.16.17 3.04.52a6.03 6.03 0 0 1 3.64 3.6c.32.82.48 1.73.48 2.72Zm6.07-6.84a20.2 20.2 0 0 1 3.12 4.24c.86 1.52 1.54 3.09 2.04 4.72.54 1.6.92 3.22 1.16 4.88.24 1.62.36 3.18.36 4.68a31.83 31.83 0 0 1-1.52 9.56 27.13 27.13 0 0 1-2.12 4.8 21.85 21.85 0 0 1-3.16 4.4l-1.92-1.4a24 24 0 0 0 4.36-8.68 33.54 33.54 0 0 0 1.16-8.68 31.3 31.3 0 0 0-1.32-8.68c-.42-1.52-.98-3-1.68-4.44A18.56 18.56 0 0 0 126 1.86l2.04-1.48Zm22.48 21.8c0-1.68.44-3.14 1.32-4.36a11.76 11.76 0 0 1 4.12-3.4c-.67-.4-1.3-.82-1.88-1.24a7.56 7.56 0 0 1-2.56-3.4c-.24-.7-.36-1.5-.36-2.4a6.47 6.47 0 0 1 2.08-5.04c.7-.62 1.5-1.1 2.44-1.44a9.5 9.5 0 0 1 3.24-.52 9.1 9.1 0 0 1 3.04.48c.9.32 1.67.76 2.28 1.32a5.76 5.76 0 0 1 2 4.56 7.8 7.8 0 0 1-1.04 4.04 11.89 11.89 0 0 1-3.44 3.4c.7.4 1.35.84 1.96 1.32a8.5 8.5 0 0 1 1.64 1.6 7.1 7.1 0 0 1 1.52 4.48c0 1.14-.19 2.2-.56 3.16a6.9 6.9 0 0 1-4.28 4.04 10.5 10.5 0 0 1-3.56.56 9.57 9.57 0 0 1-3.4-.56 7.66 7.66 0 0 1-2.52-1.52 6.42 6.42 0 0 1-1.52-2.24 7.67 7.67 0 0 1-.52-2.84Zm13.24-.4c0-.8-.16-1.5-.48-2.08a5.82 5.82 0 0 0-1.28-1.64c-.5-.51-1.1-.96-1.76-1.36-.67-.4-1.36-.79-2.08-1.16a9.25 9.25 0 0 0-3.48 3.04 6.12 6.12 0 0 0-1.04 3.2c0 .64.1 1.25.32 1.84.21.58.53 1.09.96 1.52a5 5 0 0 0 1.56 1.04c.64.24 1.37.36 2.2.36a5.15 5.15 0 0 0 3.52-1.16c.48-.4.85-.9 1.12-1.48.3-.62.44-1.32.44-2.12ZM154.27 7.3c0 .74.15 1.41.44 2 .3.56.68 1.06 1.16 1.52.5.45 1.08.88 1.72 1.28.64.37 1.3.73 2 1.08 1.2-.94 2.08-1.86 2.64-2.76.59-.91.88-1.91.88-3 0-1.36-.43-2.4-1.28-3.12a4.32 4.32 0 0 0-3-1.12 4.83 4.83 0 0 0-3.36 1.28 3.8 3.8 0 0 0-1.2 2.84Zm19.64 18.6h5.6V6.54l.4-2.36-1.6 1.88-4.4 3.16-1.52-2.04 8.8-6.8h1.44V25.9h5.48v2.96h-14.2V25.9Zm35.31-18.68c0 1.41-.26 2.86-.8 4.36a26.28 26.28 0 0 1-2.04 4.44 43.55 43.55 0 0 1-2.8 4.4 106.5 106.5 0 0 1-3.12 4.04l-1.96 1.72v.16l2.56-.44h8.72v2.96h-15.92V27.7c.59-.62 1.3-1.38 2.12-2.28a64.6 64.6 0 0 0 5.2-6.52 38.78 38.78 0 0 0 2.36-3.8c.72-1.28 1.3-2.55 1.72-3.8.43-1.26.64-2.44.64-3.56 0-1.31-.37-2.39-1.12-3.24-.74-.88-1.88-1.32-3.4-1.32-1.01 0-2 .21-2.96.64-.96.4-1.78.86-2.48 1.4l-1.32-2.28c.94-.8 2.04-1.43 3.32-1.88 1.28-.46 2.66-.68 4.12-.68 1.15 0 2.16.17 3.04.52a6.04 6.04 0 0 1 3.64 3.6c.32.82.48 1.73.48 2.72Zm6.32 8.64h9.68v2.96h-9.68v-2.96Zm16.37 10.04h5.6V6.54l.4-2.36-1.6 1.88-4.4 3.16-1.52-2.04 8.8-6.8h1.44V25.9h5.48v2.96h-14.2V25.9Zm35.32-18.68c0 1.41-.27 2.86-.8 4.36a26.28 26.28 0 0 1-2.04 4.44 43.55 43.55 0 0 1-2.8 4.4 106.5 106.5 0 0 1-3.12 4.04l-1.96 1.72v.16l2.56-.44h8.72v2.96h-15.92V27.7c.59-.62 1.3-1.38 2.12-2.28a64.6 64.6 0 0 0 5.2-6.52 38.78 38.78 0 0 0 2.36-3.8c.72-1.28 1.3-2.55 1.72-3.8.43-1.26.64-2.44.64-3.56 0-1.31-.37-2.39-1.12-3.24-.75-.88-1.88-1.32-3.4-1.32-1.01 0-2 .21-2.96.64-.96.4-1.79.86-2.48 1.4l-1.32-2.28c.93-.8 2.04-1.43 3.32-1.88 1.28-.46 2.65-.68 4.12-.68 1.15 0 2.16.17 3.04.52a6.04 6.04 0 0 1 3.64 3.6c.32.82.48 1.73.48 2.72Zm6.32 8.64h9.68v2.96h-9.68v-2.96Zm16.37 10.04h5.6V6.54l.4-2.36-1.6 1.88-4.4 3.16-1.52-2.04 8.8-6.8h1.44V25.9h5.48v2.96h-14.2V25.9Zm35.32-18.68c0 1.41-.27 2.86-.8 4.36a26.12 26.12 0 0 1-2.04 4.44 43.37 43.37 0 0 1-2.8 4.4 106.5 106.5 0 0 1-3.12 4.04l-1.96 1.72v.16l2.56-.44h8.72v2.96h-15.92V27.7c.58-.62 1.3-1.38 2.12-2.28a64 64 0 0 0 5.2-6.52 38.6 38.6 0 0 0 2.36-3.8c.72-1.28 1.3-2.55 1.72-3.8.43-1.26.64-2.44.64-3.56 0-1.31-.38-2.39-1.12-3.24-.75-.88-1.88-1.32-3.4-1.32-1.01 0-2 .21-2.96.64-.96.4-1.79.86-2.48 1.4l-1.32-2.28c.93-.8 2.04-1.43 3.32-1.88 1.28-.46 2.65-.68 4.12-.68 1.15 0 2.16.17 3.04.52a6.03 6.03 0 0 1 3.64 3.6c.32.82.48 1.73.48 2.72Z" fill="#000"/></svg>